Patient4_TMGait_0pt7_02_right_19_EMG.mot
version=1
nRows=37
nColumns=33
inDegrees=no
endheader
time	1LAddLong	2LGlutMax	3LGlutMed	4LIliopsoas	5LSemiMemb	6LBicFemLong	7LRecFem	8LVastMed	9LVastLat	10LGasMed	11LTibAnt	12lTibPost	13LPeroneusLong	14LSol	15LExtDigLong	16LFlexDigLong	17RAddLong	18RGlutMax	19RGlutMed	20RIliopsoas	21RSemiMemb	22RBicFemLong	23RRecFem	24RVastMed	25RVastLat	26RGasMed	27RTibAnt	28RTibPost	29RPeroneusLong	30RSol	31RExtDigLong	32RFlexDigLong
22.155	0.042572	0.11353	-0.11719	0.006409	-0.006256	0.12863	0.12924	-0.00885	0.081329	-0.004425	0.001984	0.000305	0.31784	0.075378	0.072937	0.006714	-0.010834	0.016327	-0.48553	-0.06424	-0.0383	0.09079	-0.017242	-0.03891	-0.00351	-0.008545	0.092163	-0.006256	-0.13046	0.087891	-0.001221	0.001831
22.156	0.050049	0.075684	-0.087128	-0.00351	0.011292	0.088959	0.14236	-0.004425	0.05249	-0.00824	0.022888	-0.000153	0.80948	0.13992	0.079651	0.00946	0.00824	0.002594	0.38116	-0.18158	-0.039368	0.089569	-0.016174	-0.032959	0.001984	-0.013275	0.10544	-0.004272	-0.034637	0.121	-0.001831	-0.001831
22.157	-0.002899	0.066986	-0.084686	-0.013733	-0.029602	0.041504	0.15243	-0.000153	0.030823	-0.033264	0.003967	0.008392	1.2566	0.13886	0.015411	0.009613	0.003357	-0.032654	0.72189	-0.23407	-0.054932	0.072327	0.007324	-0.07782	-0.001068	-0.005951	-0.11108	-0.006104	0.030823	0.10193	-0.003204	-0.00824
22.158	0.003052	0.06485	-0.15305	-0.00946	-0.011902	0.049286	0.13565	-0.002899	0.036011	-0.090942	-0.027924	0.005951	0.51819	0.22949	0.032654	0.006104	0.003052	-0.054932	0.87769	-0.32455	-0.028839	0.062866	-0.05188	-0.04364	-0.009766	-0.007324	-0.43106	-0.005951	0.04425	0.068817	-0.002594	-0.000153
22.159	0.003662	0.073853	-0.11643	-0.018463	-0.010223	0.073853	0.15137	-0.010986	0.036774	-0.048218	0.014648	0.006714	-0.4216	0.10666	-0.18265	0.001068	-0.002747	-0.05249	0.65704	-0.27512	0.10895	0.065002	-0.061951	-0.053253	0.010071	-0.009766	-0.41245	-0.002899	0.06897	-0.004883	-0.005951	0.00473
22.16	0.001678	0.12817	-0.097809	-0.010071	0.044861	0.008392	0.1329	-0.014038	0.029449	0.008392	0.06424	0.000305	0.020905	-0.03891	-0.24536	-0.002594	0.007477	-0.10895	-0.043945	-0.077057	0.020599	0.021057	-0.067749	-0.018005	0.003967	-0.007172	-0.24628	-0.001526	0.047607	-0.040741	-0.00824	-0.005493
22.161	0.014801	0.12955	-0.02121	0.001984	0.066223	-0.046387	0.17731	-0.006256	0.026245	0.022278	0.072327	0.001984	-0.36621	0.037537	-0.11719	-0.011292	0.042572	-0.13031	-0.49149	0.28259	-0.1358	-0.027924	-0.024261	-0.069122	0.000916	-0.011292	-0.10391	-0.002899	0.059052	-0.046082	-0.002441	-0.007629
22.162	-0.004578	0.073242	0.055542	0.026855	0.033264	0.000916	0.22461	-0.004272	0.017853	-0.030975	0.050507	0.005188	-0.53802	-0.028229	-0.12924	0.000305	0.045471	-0.1384	-0.046997	0.43243	-0.26459	-0.034485	-0.034027	-0.09964	-0.003815	-0.007172	-0.11108	-0.007324	0.14008	-0.023041	-0.006104	0.002441
22.163	0.001221	0.099945	0.019531	0.022125	-0.025482	0.048218	0.23468	-0.001831	0.000763	-0.096741	-0.015106	0.008392	0.025787	0.13672	-0.19928	0.006256	0.038452	-0.11047	0.10468	0.54459	-0.45242	-0.001221	-0.035706	-0.055542	0.003815	0	-0.035858	0.000763	0.022125	-0.023041	-0.00824	0.006104
22.164	-0.005035	0.10834	-0.059357	0.02182	-0.1207	0.095825	0.22095	-0.003815	-0.02182	-0.09613	-0.03067	0.00351	0.29862	0.24307	-0.10025	0.007477	-0.00946	-0.14313	0.062103	0.55374	-0.25375	0.099792	-0.000305	-0.084686	-0.002747	-0.008698	0.14038	-0.001831	-0.24063	-0.061646	-0.004272	-0.002899
22.165	-0.001831	0.1268	-0.080719	0.009613	-0.18249	0.11673	0.22492	-0.003204	-0.029297	-0.061646	-0.00061	-0.000153	0.22873	0.015869	0.056458	-0.011444	-0.033875	-0.10864	0.09903	0.32135	0.39078	0.19119	-0.034637	-0.01236	0.013123	-0.021515	0.26154	-0.00473	-0.19058	-0.019073	-0.004883	-0.011444
22.166	0.003967	0.1474	-0.064392	0.034943	-0.0914	0.11749	0.17792	0.000153	-0.004883	-0.11292	-0.013733	0.005035	0.30731	0.10284	0.18295	0.010529	-0.04364	-0.068054	0.054932	0.006104	0.27161	0.16235	-0.015717	-0.025482	0.004425	-0.028992	0.22812	-0.000916	-0.19882	0.032196	-0.003204	-0.001068
22.167	0.020905	0.11429	-0.17685	-0.015717	0.10101	0.032043	0.17654	-0.003815	0.006409	-0.028839	-0.03418	0.008087	-0.056763	0.10696	0.10101	-0.00824	-0.031891	-0.14648	-0.16342	-0.14221	0.20355	0.14618	-0.018463	0.012512	0.021667	-0.035095	0.14984	-0.004578	-0.32516	0.037689	-0.001221	0.007324
22.168	0.020294	0.12573	-0.168	-0.01709	0.15243	-0.079498	0.26489	0.000153	-0.049133	0.10254	-0.035553	0.008545	0.024109	-0.096741	0.033875	-0.019989	-0.01358	-0.12772	-0.13397	-0.11231	0.13336	0.13199	0.005035	-0.016327	0.012054	-0.046387	0.073395	-0.00412	-0.32806	0.032349	-0.002747	-0.000305
22.169	0.013123	0.18433	-0.10651	-0.019531	0.13657	-0.13031	0.27573	0.00412	-0.062256	0.1297	-0.041046	0.007324	-0.050507	-0.33493	0.011292	0.017853	-0.005646	-0.083466	-0.03418	-0.065613	0.059509	0.085449	0.039215	-0.007629	0	-0.053864	-0.12665	-0.005341	0.28275	0.062408	-0.003357	0.005493
22.17	0.016174	0.21347	-0.079803	-0.016022	0.050812	-0.12894	0.19821	-0.013885	-0.02655	0.24429	-0.041656	0.01297	-0.2861	-0.23834	0.035095	0.018311	-0.002136	-0.088196	-0.057068	-0.073395	-0.005341	0.041504	0.041199	-0.048523	0.017395	-0.048828	-0.15549	-0.003815	0.74539	-0.037842	-0.000763	0.013885
22.171	0.014343	0.19775	-0.22278	0.014801	0.035858	-0.10483	0.14908	-0.011444	0.011902	0.3096	-0.036926	0.007019	-0.27435	0.01236	0.1004	-0.003967	0.00412	-0.067444	-0.25681	-0.26977	-0.043945	0.018311	0.054626	-0.038147	0.019531	-0.065155	-0.24033	-0.00351	0.33508	-0.091705	-0.001221	0.016479
22.172	0.014343	0.21103	-0.11688	0.014343	0.063171	-0.061493	0.15274	-0.003204	0.065918	0.2977	0.003204	0.005798	-0.27344	-0.048065	0.024109	-0.008087	0.023499	-0.0914	-0.26962	-0.32364	-0.11643	0.011597	0.028229	-0.038605	0.023804	-0.079651	-0.14572	-0.00473	0.023499	-0.10193	-0.005035	0.020752
22.173	0.009613	0.21973	0.1416	-0.000458	0.05188	0.055695	0.067444	0.010376	0.014038	0.16174	0.091248	0.004578	-0.10178	-0.10223	-0.019226	-0.013733	0.024719	-0.10269	-0.31067	-0.22644	-0.16892	0	0.033417	-0.082092	0.014191	-0.10208	0.15823	-0.005341	-0.073242	-0.046539	-0.001221	0.016022
22.174	0.017242	0.19699	0.13611	0.021057	0.024414	0.070496	0.091705	0.007782	0.0177	0.091095	0.12528	0.011444	-0.10193	-0.075073	-0.006409	-0.00473	0.040436	-0.14984	-0.16754	0.14969	-0.20935	-0.019836	0.057373	-0.058136	0.019073	-0.14694	0.37399	-0.005798	-0.10712	-0.027924	-0.001526	0.029755
22.175	0.016632	0.21912	0.16327	0.000916	0.019379	0.035858	0.15945	0.001373	0.023346	-0.18448	0.095367	0.005646	0.014191	0.005798	0.050964	-0.009766	0.045624	-0.1268	-0.13275	0.29938	-0.15503	0.005798	0.027313	-0.052032	0.009918	-0.1828	0.20096	0	-0.11505	-0.039215	-0.001526	0.02655
22.176	0.009155	0.19333	0.078888	0.014191	0.011444	0.003815	0.19699	0.002289	-0.00885	-0.44556	-0.21118	0.011749	-0.073547	0.051117	0.22492	-0.007782	0.018005	-0.11673	-0.019073	0.31265	0.051727	0.0383	0.001831	0.002289	0.015259	-0.20615	-0.10346	-0.000916	0.085602	-0.022583	-0.001526	0.024719
22.177	0.000916	0.1947	-0.041809	0.029297	0.005798	0.019531	0.18662	-0.005493	0.039673	-0.22583	-0.25589	0.006104	-0.036011	-0.093384	0.050049	-0.002441	0.009613	-0.11902	-0.18387	0.2739	0.21118	0.072174	0.003967	-0.016022	0.014801	-0.15427	-0.069733	0.000458	0.78461	-0.066986	-0.000916	0.016174
22.178	0.001221	0.18738	-0.086975	0.019073	0.009613	0.021057	0.19531	-0.009003	0.09552	-0.096741	-0.11108	0.006256	0.038757	-0.14908	0.10529	-0.009003	0.009003	-0.094147	-0.048523	0.11902	0.20935	0.27908	0.00412	-0.061188	0.015717	-0.035858	-0.21652	-0.00061	0.17899	-0.06897	-0.003967	0.014343
22.179	-0.003662	0.18753	-0.083618	0.010834	0.00885	0.029144	0.18677	-0.002747	0.022583	-0.000916	-0.008698	0.025177	0.080872	-0.052185	-0.011749	-0.016785	-0.001831	-0.06073	0.10132	0.002289	0.21683	0.1738	0.000305	-0.048065	0.023804	0.1149	-0.3038	-0.003967	0.018768	-0.032349	-0.003052	0.001678
22.18	0.003204	0.19409	-0.12665	-0.011292	0.009613	-0.001831	0.19486	0.014343	-0.050049	0.016632	0.14404	0.005646	-0.17349	-0.066681	-0.040894	-0.009003	-0.017242	-0.088196	0.22125	-0.060272	0.08667	0.066681	-0.019684	0.009003	0.046082	0.24551	-0.2301	-0.001984	0.026245	-0.015411	0.000458	0.010834
22.181	-0.000763	0.23743	-0.09964	-0.00885	0.000153	-0.010529	0.25452	0.000916	-0.036163	0.015564	0.097809	0.013275	-0.21927	-0.081787	-0.08606	0.005493	0.00351	-0.041656	-0.08667	-0.026245	0.047302	-0.02121	-0.043945	-0.023193	0.043335	0.32013	-0.23483	-0.004425	0.050812	-0.025482	-0.00946	0.001373
22.182	0.002594	0.22415	-0.010986	0.015869	-0.003662	0.000153	0.24887	0.000763	-0.025635	-0.028839	-0.044556	0	-0.082703	-0.039673	0.011139	0.007629	0.032196	-0.075226	-0.13123	-0.045929	0.029449	-0.13275	-0.029144	-0.015869	0.044708	0.38055	-0.018921	-0.00351	0.041046	-0.023041	-0.00351	-0.00412
22.183	0.005493	0.17731	0.001678	0.040588	-0.002136	0.003204	0.13397	0.013123	0.00946	-0.037994	-0.079041	0.001678	0.37079	0.028992	0.066833	0.001068	0.090637	-0.12833	-0.10483	-0.084381	0.010681	-0.18524	-0.0383	-0.077209	0.016022	0.42206	0.13702	-0.005798	0.18539	-0.049591	-0.001831	-0.005646
22.184	0.008698	0.22369	-0.023041	0.014038	-0.007935	-0.056458	0.16022	-0.003967	0.10788	-0.080719	-0.037231	0.00946	0.61844	0.07843	0.15793	0.012817	0.10666	-0.067596	0.07309	-0.065002	-0.097656	-0.13702	-0.016327	-0.10056	0.028381	0.41458	0.15167	-0.002747	0.027466	-0.057526	-0.005493	-0.010071
22.185	-0.000153	0.21591	-0.13489	-0.017242	-0.01358	-0.003662	0.26489	0.010529	0.063934	-0.08255	0.028229	0.007477	0.55069	0.095825	-0.18555	0.006409	-0.013275	-0.090637	0.11963	-0.093689	-0.16602	0.046997	-0.080109	-0.022125	0.057983	0.35553	0.15121	-0.002594	0.041046	-0.03891	-0.001678	-0.010529
22.186	-0.000458	0.21668	-0.020752	-0.005341	-0.002289	-0.000305	0.35538	0.011292	0.031433	-0.087433	0.13473	0.00473	0.15015	0.037384	-0.081787	-0.001373	-0.10956	-0.10391	0.10864	-0.070496	-0.10284	0.082397	-0.08316	0.089569	0.055847	0.25589	0.16937	-0.008698	-0.27481	-0.078583	-0.000458	-0.006256
22.187	0.008698	0.18768	0.099487	-0.002289	0.006256	-0.018005	0.36377	0.016479	0.034485	-0.055084	0.15869	0.009613	-0.036163	0.11215	0.11902	-0.007477	-0.12421	-0.13123	-0.020599	-0.060272	0.24307	-0.023193	-0.07309	0.14801	0.039063	0.14923	0.084381	-0.009613	-0.62057	-0.054932	-0.003052	-0.017395
22.188	0.007172	0.17609	0.071411	-0.000458	0.007324	-0.011597	0.36377	0.00412	0.050812	-0.006409	0.14008	0.008087	-0.63294	0.15503	0.32135	-0.006561	-0.057983	-0.096283	-0.41702	-0.041351	0.19974	-0.046539	-0.030365	0.085602	0.030823	0.085297	-0.006866	-0.011749	-0.5838	-0.030975	0.010529	-0.013885
22.189	0.005035	0.1741	0.064392	-0.005035	-0.004425	0.037994	0.34409	0.004272	0.028381	-0.01297	0.085449	0.008392	-0.23148	0.22003	-0.44647	0.009918	-0.031738	-0.081635	-0.15625	-0.071564	-0.014191	-0.14069	-0.007019	0.037231	0.017548	0.018005	0.007782	-0.008087	-0.12268	0.057526	0	-0.007629
22.19	0.005951	0.16998	0.040894	0.018921	0.00946	-0.000305	0.27359	0.017853	0.006256	-0.074615	0.003357	0.005188	-0.16876	0.15182	-0.35049	0.016632	-0.026093	-0.08606	-0.31235	-0.12634	-0.028534	-0.15518	-0.038605	-0.004272	0.004272	0.036621	-0.008545	0.001526	0.11963	0.086517	-0.006104	-0.003967
22.191	0.007324	0.15656	0.000763	0.028992	0.000763	0.058594	0.27145	0.022736	-0.041504	-0.041962	-0.074768	0.008698	0.01358	0.13931	-0.27603	-0.00412	-0.006256	-0.11398	0.016479	-0.12619	-0.000916	-0.11078	-0.016632	-0.02182	0.00473	0.049133	0.25024	-0.000763	0.12863	0.008087	0.001068	-0.003052
